<?xml version="1.0" encoding="utf-8"?>
<!-- Generator: Adobe Illustrator 19.0.0, SVG Export Plug-In . SVG Version: 6.00 Build 0)  -->
<svg version="1.1" id="Layer_1" xmlns="http://www.w3.org/2000/svg" xmlns:xlink="http://www.w3.org/1999/xlink" x="0px" y="0px"
	 viewBox="0 0 300 300" style="enable-background:new 0 0 300 300;" xml:space="preserve">
<style type="text/css">
	.st0{fill:none;stroke:#000000;stroke-width:2;stroke-linecap:round;stroke-linejoin:round;stroke-miterlimit:10;}
</style>
<path id="XMLID_2_" class="st0" d="M97.1,127.6c-1.7-1.6-5-10-5.9-12.9s-2.7-2-9.5-5.8c-6.9-3.7-12.8-14.3-13.9-18.1
	c-1.1-3.7,1.6-13.6,1.1-15.1c-0.5-1.6-3.6-1.4-5.5-3.1c-1.9-1.7-2.7-7.8-2.8-9.4s-11.2-4.7-12.2-8C52,51.9,62,34.3,65,31
	c3-3.3,11.1-8.4,12.5-8.9s3.9,1.4,3.9,1.4l21.8-8.9l9.4-3.3c0,0,3.7,9.8,17,17.3s24,11.7,37.1,8.9c13.1-2.8,29.5-8.9,38.8-27.6
	c2.5,0,8.4,3.4,8.4,3.4s4.7,0.9,7,2.3c2.3,1.4,9,6.7,11.4,7c2.3,0.3,5.9-0.3,8.1,1.7s30.9,23.7,31.2,25.3c0.3,1.6-16.4,21.2-19,26.5
	s-14.8,21.4-15.9,25.3c-1.1,3.9-1.1,11.4-4.4,14.7c-3.3,3.3-3.1,8.9-6.6,10.1"/>
<path id="XMLID_3_" class="st0" d="M81.3,23.6c0,0,4.1,10.9,5.5,17.2s4.7,12.2,4.8,17.5c0.2,5.3-1.7,17.6-1.7,24.3
	c0,6.7,2.8,22.1,6.9,26.7c0,9.8-0.6,20.9,1.1,25.9c1.7,5,5.8,20,6.5,38.8s-20.6,79-19.3,91.7c4.2,4.4,14,6.1,28.5,7.2
	c3.1,5.3,8.9,8.7,13.1,10s11.7,2.5,11.7,2.5s5.9,4.1,12.5,4.7s28.2-0.9,31.6-2.7c3.4-0.2,19.5-5,20.9-7.8c7.2-1.1,20-7.8,23.2-12.5
	c10.6-3.4,12.5-9.8,12.5-9.8s-19.3-63.1-20.4-68.4c-1.1-5.3-2.2-31.6,2.2-40.8c4.4-9.2,2.2-18.1,2.2-18.1s3.9-2.5,3.7-9.7
	c-0.2-7.2,1.2-22.8,2.3-25.4c1.1-2.7,0.6-12.5-1.1-15.9c-1.7-3.4,0.5-22.6,3-28.8s8.1-24.9,8.1-24.9"/>
<path id="XMLID_1_" class="st0" d="M148.2,47c0,0-0.8-2-4.1-3.7c-3.3-1.7-25.3-7-25.3-7s0.2,10.1,0,15.6c-0.2,5.5-0.9,19.5,1.9,24.5
	c2.8,5,11.4,11.4,13.6,12.6c0,0,7.2-6.9,9.5-10.6c2.3-3.7-0.2-6.4,3-7.3c3.1-0.9,3.9-2.2,3.9-2.2s-1.1-3.1-0.9-6.2
	c0.2-3.1-3.3-13.1-0.9-14.8c2.3-1.7,7.5-3,11.4-2.5c3.9,0.5,11.2,0.8,11.2,3s0.5,10.6-0.8,14.3c-1.2,3.7-1.2,5-1.2,5
	s-14.3,3.6-17.5,1.2"/>
<path id="XMLID_5_" class="st0" d="M169.4,67.5c0,0,8.7,12,10.9,13.9c2.2,1.9,8.4,7.5,8.4,7.5s6.7-3.6,7-5.9c0.3-2.3-1.6-7.3,0-8.9
	c1.6-1.6,4.8-6.9,5.1-13.3c0.3-6.4,1.6-18.6,0-21.4c-1.6-2.8-3.9-3.3-3.9-3.3s-9.2,4.7-10.6,6.1c-1.4,1.4-12.9,6.4-15,5.9"/>
<path id="XMLID_6_" class="st0" d="M149.9,67.4c0,0-3-1.7-4.7,0c-1.7,1.7-6.6,10.6-12.8,15.1"/>
<path id="XMLID_8_" class="st0" d="M149.7,61.4c0,0-4.2-3.2-7.6,0c-3.4,3.2-5.1,9.4-8.4,10.3s-4.5,3.6-6.4,3.8"/>
<path id="XMLID_4_" class="st0" d="M148.4,54c0,0,0.6-1.4-4.1,0c-4.7,1.4-10.2,7-17.9,6.7"/>
<path id="XMLID_7_" class="st0" d="M170.7,62.5c0,0,9,8.1,10.4,10.1s7.5,6.4,8.3,8"/>
<path id="XMLID_10_" class="st0" d="M171.4,60.7c0.7,0.7,7.4,2.7,7.7,3.4"/>
<path id="XMLID_9_" class="st0" d="M171.5,56.5c0,0,2.9,0.2,7.6,2.5s11.1,7.8,13.9,7.7"/>
<path id="XMLID_12_" class="st0" d="M103.2,14.7c0,0,15.3,21.4,19.5,22.4"/>
<path id="XMLID_13_" class="st0" d="M213.9,13.4c0,0-14.8,21.1-22.6,25.8"/>
<path id="XMLID_11_" class="st0" d="M74.9,70.5c0.9-1.4,3.5-1.6,7.7-1.7c4.2-0.1,8.8-12.3,8.8-12.3"/>
<path id="XMLID_15_" class="st0" d="M88.3,45.7c0,0-5.8,6-9.3,7.7"/>
<path id="XMLID_16_" class="st0" d="M229.7,54.7c0,0,11.1,16.5,11.6,22.4"/>
<path id="XMLID_17_" class="st0" d="M244,33.5c0,0,6.5,8,6.1,11.2"/>
<path id="XMLID_18_" class="st0" d="M89.6,49.5c0,0,20.5-18.3,26.2-18.7"/>
<path id="XMLID_19_" class="st0" d="M231,49.9c0,0-23.6-16.8-29.3-19.1"/>
<path id="XMLID_14_" class="st0" d="M122.7,173.2c0,0-6.1,51.1-4,58c2.1,6.9-5.8,24.9-5.8,24.9"/>
<path id="XMLID_21_" class="st0" d="M175.2,243.1c1.7,1.9,4.8,30.9,3.9,38"/>
<path id="XMLID_20_" class="st0" d="M196.9,173.2c0,0-4.4,38,0,48.6c4.4,10.6,8.1,29.9,12.5,34.3"/>
</svg>
