<?xml version="1.0" encoding="utf-8"?>
<!-- Generator: Adobe Illustrator 19.0.0, SVG Export Plug-In . SVG Version: 6.00 Build 0)  -->
<svg version="1.1" id="Layer_1" xmlns="http://www.w3.org/2000/svg" xmlns:xlink="http://www.w3.org/1999/xlink" x="0px" y="0px"
	 viewBox="0 0 300 300" style="enable-background:new 0 0 300 300;" xml:space="preserve">
<style type="text/css">
	.st0{fill:none;stroke:#000000;stroke-width:2;stroke-linecap:round;stroke-linejoin:round;stroke-miterlimit:10;}
</style>
<g id="XMLID_32_">
	<path id="XMLID_27_" class="st0" d="M224.4,15.4c0,0-1.8,0.1-1.8,2.2s1.5,2.1,2.4,2.1c1.2,0,2.9-2.7-0.3-4.3"/>
	<path id="XMLID_28_" class="st0" d="M257.1,19.1c0,0,3.3,34.2,4.8,36c1.5,1.9,6.3,3.1,6.3,3.1"/>
	<path id="XMLID_29_" class="st0" d="M183,19.4c0,0-2.5,34.2-4,36.2c-1.4,2-6.5,2.6-6.5,2.6"/>
	<path id="XMLID_30_" class="st0" d="M177.2,280.3c0,0,8.2,9,16.5,9s20.2-7.4,20.2-7.4"/>
	<path id="XMLID_31_" class="st0" d="M226.8,282.3c0,0,11.3,7,17.7,7s19.5-9,19.5-9"/>
	<line id="XMLID_33_" class="st0" x1="194.4" y1="71.5" x2="195.7" y2="294.7"/>
	<line id="XMLID_34_" class="st0" x1="248.4" y1="71.4" x2="245.6" y2="294"/>
	<path id="XMLID_17_" class="st0" d="M264.7,7c-10.9-2.6-79.9-1.8-88.8,0c-4.2,21.4-3.4,72.2-3,80.3s4.2,99.2,4.2,99.2v98.8
		c0,0,10.8,9.4,18.5,9.4c7.8,0,18.2-8.3,18.2-8.3s2.3-141.5,1.9-160.1c-0.4-18.5,3-50.5,4.8-54.9c3.2,14.6,4.2,50.5,4.2,72.9
		s2.1,142.2,2.1,142.2s7.6,7.4,18.7,7.4s18.4-9.4,18.4-9.4v-93c0,0,3.9-126.7,4.2-135.7S264.7,7,264.7,7s-11,5.3-44.3,4.7
		s-43.6-4.1-43.6-4.1"/>
	<polyline id="XMLID_20_" class="st0" points="199.5,10.8 199.1,24.7 202.6,25.4 202.6,11.5 	"/>
	<polyline id="XMLID_21_" class="st0" points="237.1,11.5 238.1,25.4 241.2,25.4 240.4,11.3 	"/>
	<path id="XMLID_22_" class="st0" d="M174.5,16.5c0,0,3.1,3.1,24.6,5.2"/>
	<path id="XMLID_23_" class="st0" d="M202.6,21.7c0,0,19.5,2.1,35.3,0"/>
	<path id="XMLID_24_" class="st0" d="M241.2,21.3c0,0,16-1.6,24.4-4.2"/>
	<line id="XMLID_25_" class="st0" x1="220.4" y1="11.7" x2="220.6" y2="71.4"/>
	<path id="XMLID_26_" class="st0" d="M213,73.5c0,0,7-4.5,17.9-4.1"/>
	<path id="XMLID_19_" class="st0" d="M226.8,22.6c0,0,1.5,29.7,0,32c-1.5,2.3-6.3,3.1-6.3,3.1"/>
</g>
</svg>
