<?xml version="1.0" encoding="utf-8"?>
<!-- Generator: Adobe Illustrator 19.0.0, SVG Export Plug-In . SVG Version: 6.00 Build 0)  -->
<svg version="1.1" id="Layer_1" xmlns="http://www.w3.org/2000/svg" xmlns:xlink="http://www.w3.org/1999/xlink" x="0px" y="0px"
	 viewBox="0 0 300 300" style="enable-background:new 0 0 300 300;" xml:space="preserve">
<style type="text/css">
	.st0{fill:none;stroke:#000000;stroke-width:2;stroke-linecap:round;stroke-linejoin:round;stroke-miterlimit:10;}
</style>
<path id="XMLID_1_" class="st0" d="M128.8,20.6c0,0,7.7,38.1,10.1,41.5c7.4-9.2,26.1-25.2,26.1-25.2S138.7,16.6,139,6.8
	C132.5,14.2,128.8,20.6,128.8,20.6z"/>
<path id="XMLID_2_" class="st0" d="M139,6.8c0,0,9.5-6.8,47-1.5c0,0,3.1,4.3-20.9,31.6c12,12.6,20,20,22.7,25.2
	c4.3-13.5,8.9-38.1,9.2-41.2S186,5.4,186,5.4"/>
<path id="XMLID_3_" class="st0" d="M129.3,22.9c0,0-50.4,12.1-53.1,16.8c-2.7,4.7-41.4,88.9-44.9,118.8s22.7,117.2,22.7,117.2
	s24.4-2.9,31.3-6.8c-0.4-2.5-13.7-97.7-12.5-103.6c1.2-5.9,16.6-34.6,16.6-34.6s0,144-0.4,147.1c19.5,8.4,44.7,19.5,76.6,19
	s66.4-19,75.6-19.5c0-11.5-2.7-149.1-2.7-149.1s18.2,19,14.1,55.7S245,267,245,267s13.3,6.3,31.1,5.9c0-9,21.5-75.4,20.9-106.3
	s-30.7-108.4-46.3-128c-15-7-53.7-17.7-53.7-17.7"/>
<line id="XMLID_5_" class="st0" x1="158" y1="43.1" x2="161.8" y2="296.7"/>
<line id="XMLID_4_" class="st0" x1="170.6" y1="296.7" x2="169.8" y2="41.8"/>
<path id="XMLID_7_" class="st0" d="M77.7,43.8c0,0,16.8,46.6,12,79.9"/>
<path id="XMLID_8_" class="st0" d="M247.7,43.8c0,0-12.7,38.8-9,79.9"/>
<path id="XMLID_10_" class="st0" d="M163.8,42.5c0,0-2.1,0.1-2.2,2.5c-0.1,2.4,1.8,2.4,2.8,2.5c1.4,0,3.4-3.2-0.3-5"/>
<path id="XMLID_6_" class="st0" d="M163.8,79.4c0,0-2.1,0.1-2.2,2.5c-0.1,2.4,1.8,2.4,2.8,2.5c1.4,0,3.4-3.2-0.3-5"/>
<path id="XMLID_9_" class="st0" d="M163.8,116.2c0,0-2.1,0.1-2.2,2.5c-0.1,2.4,1.8,2.4,2.8,2.5c1.4,0,3.4-3.2-0.3-5"/>
<path id="XMLID_11_" class="st0" d="M164.2,153.1c0,0-2.1,0.1-2.2,2.5c-0.1,2.4,1.8,2.4,2.8,2.5c1.4,0,3.4-3.2-0.3-5"/>
<path id="XMLID_12_" class="st0" d="M165.1,190c0,0-2.1,0.1-2.2,2.5c-0.1,2.4,1.8,2.4,2.8,2.5c1.4,0,3.4-3.2-0.3-5"/>
<path id="XMLID_13_" class="st0" d="M165.8,226.8c0,0-2.1,0.1-2.2,2.5c-0.1,2.4,1.8,2.4,2.8,2.5c1.4,0,3.4-3.2-0.3-5"/>
<path id="XMLID_15_" class="st0" d="M48,254.2c0,0,23.7-1.6,34.5-6.4"/>
<path id="XMLID_16_" class="st0" d="M246.9,244c0,0,12.3,7.3,34,7"/>
<path id="XMLID_17_" class="st0" d="M186.3,87.6h39.8v39.5l-20.1,8.6l-20.7-8.6V87.6"/>
<line id="XMLID_18_" class="st0" x1="185.4" y1="96" x2="226.1" y2="96"/>
</svg>
