<?xml version="1.0" encoding="utf-8"?>
<!-- Generator: Adobe Illustrator 19.0.0, SVG Export Plug-In . SVG Version: 6.00 Build 0)  -->
<svg version="1.1" id="Layer_1" xmlns="http://www.w3.org/2000/svg" xmlns:xlink="http://www.w3.org/1999/xlink" x="0px" y="0px"
	 viewBox="0 0 300 300" style="enable-background:new 0 0 300 300;" xml:space="preserve">
<style type="text/css">
	.st0{fill:none;stroke:#000000;stroke-width:2;stroke-linecap:round;stroke-linejoin:round;stroke-miterlimit:10;}
</style>
<g id="XMLID_59_">
	<path id="XMLID_18_" class="st0" d="M244.9,52.4c-0.5,0.6-21.2,24.7-25.2,31.7c-3.9,7.1-28.9,56.1-28.9,56.1l-26,52.5
		c0,0-12.3,24.9-12.1,35.1c0.3,10.2-2.4,17.8,5.2,24.9s18.4,12.1,31.7,7.3c13.4-4.7,42.5-27,57.2-46.7
		c14.7-19.7,19.1-41.4,20.5-56.3s8.9-26.4,8.9-26.4h2.1c0,0,17.6-36.2,16.3-53.8s-3.4-22-8.1-26.8c-3.4-6.6-7.9-12.3-13.4-12.3
		S256.1,38.9,244.9,52.4z"/>
	<path id="XMLID_35_" class="st0" d="M233.4,66.1c-6.6,7.9-15.5,25.9-15.8,29.3c-0.3,3.4,3.7,7.1,3.7,7.1s6.3,9.4,5.5,12.9
		s-20.7,42.5-25.4,45.9c-4.7,3.4-22.2,2.6-22.2,2.6"/>
	<path id="XMLID_37_" class="st0" d="M282,43.1c0,0,3,9.3,2.2,18.2c-0.8,8.9-6,31.7-17,42.2s-23.9,10-28.1,12.6
		c-4.2,2.6-15.5,22.8-19.4,33.8c-3.9,11-5,21.8,0,26.5s17.8,12.9,17.8,12.9l11.3-20.5c0,0-10.2-5.5-7.9-11.5s3.4-27,12.9-32.8
		c9.4-5.8,13.4-8.4,16.8-11.8c3.4-3.4,10.2-13.4,13.8-25.7s3.5-24.4,2.5-33.8c5,18.4,1,25.4-1,34.1s-13.9,31.5-16,39.6
		c-2.1,8.1-5.2,15.5-4.7,23.1c-4.7,9.4-17.6,44.6-38.8,61.6s-32-1.8-28.9-18.6c-8.1,12.1-19.1,12.6-24.4,8.4
		c-5.2-4.2-6.5-12-3.6-17.9"/>
	<path id="XMLID_38_" class="st0" d="M221.3,102.5c0,0,16.3,5.5,23.3,11.8"/>
	<path id="XMLID_39_" class="st0" d="M181.3,128.9c0,0,11.5-1.2,14.4-3.4c2.9-2.2,11.3-7.3,17.8-5.1c6.6,2.2,13.5,1.7,13.5,1.7
		s2.8,0.2,0.9-2.3c-1.9-2.5-3.9,0.7-1.6,3.2s6.8,8.3,9.3,10.5c2.5,2.2,10.8,9.8,13.8,10.4c3,0.5,6.4-1.2,6.7-3.5
		c0.3-2.4-1.7-9.3-10-11.8c-8.3-2.5-22.5-8.3-22.5-8.3s1.5-4.9,4.1-2.2c2.6,2.6-5,7.6-2.9,5c2.1-2.6-0.5-4.8,2.1-2.6
		c0,0,2.6-0.3,1.5,2.6c-1,2.9,2.5,3.9,2.5,3.9l-17.4,0.7"/>
	<line id="XMLID_40_" class="st0" x1="208.9" y1="137.8" x2="225.5" y2="137.1"/>
	<line id="XMLID_41_" class="st0" x1="218.7" y1="132.2" x2="228.6" y2="148.5"/>
	<path id="XMLID_42_" class="st0" d="M242.6,158.9c0,0-7.6-27.7-15.2-36.1c-2.6-0.7-2.6-8.7,0.4-4.9c3,3.8,3.3,2.9,0.2,4
		c-2.9,1-5.9-2.4-1.8-1.7c0.2,0,0.5,0.1,0.8,0.1c5.2,1.2,5.9,4.2,2.6,3.4c-3.3-0.8-3.7-5.4-5.4-7.7c-1.8-2.4-10.2-10.6-19.2-8.9
		c-9,1.7-6.2,7.9-4.9,10.1c1.3,2.2,12.3,1.6,16,0.9s10.5,1.4,10.5,1.4l-3,2.9l-0.7,1.5l9,12.6"/>
	<line id="XMLID_43_" class="st0" x1="213.8" y1="141.6" x2="225.5" y2="159.4"/>
	<line id="XMLID_44_" class="st0" x1="202.8" y1="148.5" x2="220.6" y2="147.5"/>
	<line id="XMLID_45_" class="st0" x1="206.3" y1="154.6" x2="217.2" y2="160.7"/>
	<path id="XMLID_46_" class="st0" d="M162.2,198.4c0,0-1.6,6.6,7.6,11.3c9.2,4.7,19.5,0,19.5,0s3.7,13,11.8,16.7
		c8.1,3.7,22.8,0,31.1-9.8s27.9-35.1,32.9-66.6"/>
	<path id="XMLID_47_" class="st0" d="M267,161.6c-0.1,1-9.1,42.4-34,63.9s-41.1,32.7-53.8,31.5c-12.6-1.2-20-4.7-26.5-22.6"/>
	<line id="XMLID_48_" class="st0" x1="195.8" y1="157.7" x2="223.7" y2="171.6"/>
	<path id="XMLID_36_" class="st0" d="M213.4,96.2c0,0-10.1-2-15.4,0c-5.3,2-18.7,10.3-30.1,13.8s-35.4,8.5-46.6,11
		c-11.2,2.6-24.2,6.7-33.5,13.4c-9.3,6.7-9.6,5.4-10.5,9.5s-2.6,7.8,7,17s28.2,16.3,44.5,18s43.6-1.1,43.6-1.1"/>
	<path id="XMLID_49_" class="st0" d="M288.8,105.8c0,0,7.6,13.6,6,24.3c-1.6,10.6-5.5,16.1-5.5,16.1s2.7,8.8-3.7,15.4
		c-6.4,6.6-19.8,7.8-19.8,7.8"/>
	<path id="XMLID_51_" class="st0" d="M290.5,109.3c0,0,0.6,9.8-8.8,14.2"/>
	<path id="XMLID_52_" class="st0" d="M293.9,118.9c0,0,0.2,11.2-20.4,17.1"/>
	<path id="XMLID_53_" class="st0" d="M289.2,146.2c0,0-9.5,9.8-21.8,10.3"/>
	<path id="XMLID_54_" class="st0" d="M133,118.4c-0.5,0.1-13.5,4.5-11.2,9s13.8,6.1,20.3,3.3c-10.3,7.3-21.2,6.3-17.4,16.1
		c3.8,9.8,14.8,12.3,25.3,13.2s29.1-2.8,33.7-5.4"/>
	<path id="XMLID_55_" class="st0" d="M114,122.8c0,0-3.2,5.5-1.5,7.7c1.7,2.2,2.1,2.9,10,6.5c-9.4,3.9-9.2,11.7-3.9,17.6
		s16.9,10.4,24,11.7c7.1,1.3,29.3-0.7,37.7-4.8"/>
	<path id="XMLID_56_" class="st0" d="M78.6,140.9c0,0-0.8,8.8,1.7,11.3c2.5,2.6,14.2,14,29.4,17.6c15.2,3.6,42,7.1,64.3,4.5"/>
	<path id="XMLID_57_" class="st0" d="M150.5,114.5c0,0,3.7,7,14.7,1.9c2,4.5,2,4.5,2,4.5s-10,4.4-9.5,15.1
		c0.5,10.7,2.3,18.6,2.3,18.6l23.6-4.1c0,0-3.9-9.6,0-13.4c3.9-3.8,13.2-8.4,13.2-8.4"/>
	<path id="XMLID_58_" class="st0" d="M193.9,132.2c0,0-4.2-0.7-4.1-9.4c0-3.8,4.3-9.4,5.2-12.5c0.8-3.1,0.8-7.9,1.8-9.5
		c1-1.6,3.2-1,1.9,1.7c-1.3,2.7-4.1,0.5-3.6-1.6c0.5-2.1,2.1-5,2.7-2.6c0.6,2.5-2,8.8-2.8,6.4c-0.8-2.4,3.7,4.1,3.7,4.1l-12.9-6.6"
		/>
	<path id="XMLID_50_" class="st0" d="M176.5,105.3c0,0,3.1-0.2,3.7-1.2c0.7-1,5.9-6.8,8.2-7.7c2.3-0.9,5.6-4,7.9-1.7
		c2.3,2.4,5.1,2.9,2.7,4.8s-8.6,1.7-5.2,2.9s5.3-7,5.3-8.6c-0.1-1.6,0.8-3.2-2.3-3.6c-3.1-0.4-8.8,0.7-4.4,5.6s6.2,4.3,4.4,4.9
		c-1.8,0.6-1.6-6.7,0-2.2c1.6,4.5-3.1-0.4-3.1-0.4l-2.8,14.9"/>
	<line id="XMLID_60_" class="st0" x1="167.2" y1="120.9" x2="196.4" y2="104.3"/>
	<line id="XMLID_61_" class="st0" x1="165.1" y1="116.4" x2="196.3" y2="100.8"/>
	<path id="XMLID_62_" class="st0" d="M206.3,95.3c-0.4,0-6,1.6-5.8,3.5c0.2,1.9,1.5,2.2,0.8,4.3c-0.7,2.2-2.2,7.2,2.7,11.4"/>
	<line id="XMLID_63_" class="st0" x1="183.6" y1="111.6" x2="177.6" y2="106.2"/>
	<line id="XMLID_64_" class="st0" x1="180.6" y1="118.9" x2="182.5" y2="107.7"/>
	<line id="XMLID_65_" class="st0" x1="175.7" y1="116.1" x2="167.2" y2="110.2"/>
	<line id="XMLID_66_" class="st0" x1="172.2" y1="122.8" x2="174" y2="112"/>
	<path id="XMLID_67_" class="st0" d="M163.2,130.6c0,0,0.5-12.9-4.2-18"/>
	<path id="XMLID_68_" class="st0" d="M230.6,106.2c0,0,1.1-20.8,17.1-37.5s22.7-18.4,25.8-16.8s11.4,8.7,9.8,15.7"/>
</g>
</svg>
