<?xml version="1.0" encoding="utf-8"?>
<!-- Generator: Adobe Illustrator 19.0.0, SVG Export Plug-In . SVG Version: 6.00 Build 0)  -->
<svg version="1.1" id="Layer_1" xmlns="http://www.w3.org/2000/svg" xmlns:xlink="http://www.w3.org/1999/xlink" x="0px" y="0px"
	 viewBox="0 0 300 300" style="enable-background:new 0 0 300 300;" xml:space="preserve">
<style type="text/css">
	.st0{fill:none;stroke:#000000;stroke-width:2;stroke-linecap:round;stroke-linejoin:round;stroke-miterlimit:10;}
</style>
<path id="XMLID_2_" class="st0" d="M156.5,10.6c0,0-38.3-0.9-39.5,1.4s-2.4,8.7-2.4,10.3c0,1.6-1.4,3-1.4,3s-0.8,3.8-0.7,4.9
	c0.1,1.1-1.4,3.4-1.3,4.6c0.1,1.3-2.2,7.4-1.3,10.1c-1.5,2.2-1.1,3.6-1.1,3.6s-2.1,2.8-0.8,4.3c0,0-1,7.9-1.5,13.2
	c-0.6,5.3-2.5,19.5-2.2,27.8c0.3,8.3,0.5,30.6,0,35.8c-0.5,5.2-5.6,43.1-4.2,50.9c-0.2,4.3-2.2,22.4-0.2,30.4s3.3,73.9,5,77.4
	c1.7,3.5,27.8,0,32.1,0s25.9,0.6,27.8-0.4c0-3.9,0.6-68.7,0-75c-0.6-6.3-2.1-48.6-3.2-62.8s-2.9-36.9-2.9-36.9"/>
<path id="XMLID_3_" class="st0" d="M130.1,134.7c0,0,11.2,64.4,8.6,88.1"/>
<line id="XMLID_4_" class="st0" x1="165" y1="285" x2="172" y2="285"/>
<path id="XMLID_1_" class="st0" d="M168.8,253.1l4.6,34.9c0,0,17.5,1.8,20.1,0.8s2.5-1,2.5-1s-1.4-48.1-2.8-53.9
	c-1.4-5.7-2.2-61.6-2.2-67s-2.1-65.5-2.1-65.5"/>
<path id="XMLID_5_" class="st0" d="M196,285.6c0,0,23.7-5,27.2-7c3.5-2,6.3-1,10.7-3.2c4.3-2.2,10.9-3.5,10.9-3.5
	s-4.3-42.2-6.7-49.1c-2.4-6.9-10.5-70-13.6-76.9c-3.1-6.9-10-36-10-36"/>
<path id="XMLID_7_" class="st0" d="M244.8,269.1c0,0,14.7-0.7,16-2.4c1.3-1.7-2.8-32.1-3.9-38.7c-1.1-6.6-17.7-78-19.4-81.6
	c-1.7-3.6-13.9-64-15.4-66.3c-1.5-2.4-4.6-7.3-7-14.9s-2.7-12.5-4.1-14.7c-1.4-2.2-1.8-5-1.8-5l-4.5-12.2c0,0-0.3-8.4-0.7-10.1
	c-0.4-1.7,1.3-9.8,0-11.9s-46.8-0.8-46.8-0.8"/>
<path id="XMLID_8_" class="st0" d="M199.8,104.7c0,0,15.1,90.3,14,104.6"/>
<path id="XMLID_6_" class="st0" d="M103.7,278.2c0,0,20.1,0.3,22.2-0.7c2-0.9,31.6-2,38.9-0.9"/>
<line id="XMLID_10_" class="st0" x1="167" y1="275" x2="172" y2="275"/>
<path id="XMLID_11_" class="st0" d="M172.1,278.2c0,0,21,4.2,23.6,0"/>
<path id="XMLID_9_" class="st0" d="M195.7,275.5c0,0,10.7-3.4,19.4-5.8s27.2-7.2,28.4-9.8"/>
<path id="XMLID_13_" class="st0" d="M243.5,257.5c0,0,10.9,1.4,17-0.5"/>
<path id="XMLID_14_" class="st0" d="M114,21h5.6c0,0-2.4,8.8-2.5,10.6c-0.1,1.8-4.8-0.5-4.8-0.5"/>
<path id="XMLID_12_" class="st0" d="M121.9,20.9c0,0,3.8,0,3.8,0.7s-3.1,9.4-1.9,12.2c-3.7-0.6-4.3-1.5-4.3-1.5L121.9,20.9"/>
<path id="XMLID_15_" class="st0" d="M203.9,22.1c-1.5-0.7-4.1,0.8-4.1,0.8s2,7.9,1.3,10.8c2,0,3.6-0.6,3.6-0.6"/>
<path id="XMLID_16_" class="st0" d="M194,23c0,0,2.8-1.4,3.2,0c0.3,0.8,0.9,4,1.1,6.7c0.1,1.8,0.1,3.5-0.4,4.1
	c-3.2,0-3.2-0.7-3.2-0.7L194,23"/>
<line id="XMLID_18_" class="st0" x1="118.6" y1="24.5" x2="121" y2="25.4"/>
<path id="XMLID_19_" class="st0" d="M124.4,26.5l13.4,0.8c0,0,0-2.9,2.2-2.3c2.2,0.5,9.4,1.3,11.6,1.1c2.2-0.2,6.7,1.2,6.7,1.2
	s1.7-2.4,4.2-2.4c2.5,0,4.9,3.2,4.9,3.2s8.3-3.5,9,0c0.7,3.5-2.8,6.7-5.2,7.1s-8.8-3.8-8.8-3.8"/>
<path id="XMLID_17_" class="st0" d="M165,28.1c0,0-3.1,1.6-3.2,4.2s-6.5,0-6.5,0"/>
<path id="XMLID_20_" class="st0" d="M156.6,27.9c0,0-3.2,7.9-5,12.2c-1.8,4.3-5.7,14-8.8,17.4S133,65.2,132,68.7
	c-3.4-3.9-2.2-9.8,1.1-13c3.2-3.2,9.1-10.2,10.2-14.6c1.1-4.3,8.4-14.9,8.4-14.9"/>
<path id="XMLID_22_" class="st0" d="M168.1,32.2c0,0,2.9-3.8,7.7-2.2"/>
<path id="XMLID_23_" class="st0" d="M174,33.8c0,0,7.7,10.7,7.7,12.6s-4.1,13-3.8,17.5c-5.9-2.2-4.7-9.8-4.6-10.2
	c0.1-0.4,3.4-5.3,3.3-8.3c-0.1-2.9-5.3-10.2-5.3-10.2"/>
<path id="XMLID_21_" class="st0" d="M137.8,27.3c0,0-0.1,7.2,1.8,10c2.9,0,5.6-2.1,5.6-2.1"/>
<path id="XMLID_25_" class="st0" d="M176.5,26.5c0,0,15.8,0.5,17.5,0"/>
<path id="XMLID_26_" class="st0" d="M176.5,30.7c0,0,17.1-0.4,17.5-0.6"/>
<line id="XMLID_27_" class="st0" x1="198.4" y1="26.6" x2="200.5" y2="26.5"/>
<line id="XMLID_28_" class="st0" x1="200.9" y1="28.8" x2="198.3" y2="29.6"/>
<line id="XMLID_29_" class="st0" x1="117.8" y1="27.9" x2="119.6" y2="28.8"/>
<line id="XMLID_30_" class="st0" x1="123.8" y1="29.6" x2="137.8" y2="30"/>
<path id="XMLID_31_" class="st0" d="M112.5,44.4c0,0,15.9,2.4,23.1,3"/>
<path id="XMLID_32_" class="st0" d="M151.5,47.4c0,0,19.5-0.3,22.1,0"/>
<path id="XMLID_24_" class="st0" d="M183.7,47.3c0,0,16.4-0.3,19.6-1.3s3.2-1.1,3.2-1.1"/>
</svg>
