<?xml version="1.0" encoding="utf-8"?>
<!-- Generator: Adobe Illustrator 19.0.0, SVG Export Plug-In . SVG Version: 6.00 Build 0)  -->
<svg version="1.1" id="Layer_1" xmlns="http://www.w3.org/2000/svg" xmlns:xlink="http://www.w3.org/1999/xlink" x="0px" y="0px"
	 viewBox="0 0 300 300" style="enable-background:new 0 0 300 300;" xml:space="preserve">
<style type="text/css">
	.st0{fill:none;stroke:#000000;stroke-width:2;stroke-linecap:round;stroke-linejoin:round;stroke-miterlimit:10;}
</style>
<g id="XMLID_20_">
	<path id="XMLID_2_" class="st0" d="M134.1,55.7c0,0-7.7-2.2-12.4,0c-4.7,2.2-13.7,5.2-15.6,8.2c0,0-3.6,1.1-3.9,18.4s0,52.9,0,52.9
		s-3.9,7.7-4.2,9.9c-0.3,2.2-2,41.2,3,48.1c0,12.1,0,52.2,0,52.2s-0.1,2.5,1.8,5.2c-3.1,0-3.5-1.2-4.7,0c-1.2,1.2-4.8,5.6-2.6,17.9
		c1.1,5.1,3.4,7,6.3,7.5s8.2,1.1,10.5-3.4c4.5,3.8,6,7.4,8.4,9.6c2.3,2.2,12.5,2.1,15.7,1.5s10.4,2.7,14.2,6
		c5.5,1.4,10.7-1,13.8-1.6s35.7-6.2,45.3-5.3c9.6,0.8,13.3,0.4,16.4-2.2c3.1-2.6,11.4-10.3,12.9-11.1c1.5-0.8,8.5,0.7,12.3-1.2
		c3.8-1.9,3.3-5.3,3.4-10.4c0.1-5.1,0-7,0-7s2.6-1.9,3.6-3.3s2.7-66.7,2.7-74.5s-0.1-45.3-1.2-50.8c0,0,2.3-32.3-2.1-44.2
		c-4.4-11.9-7.5-14.2-14.7-14.7c-7.9-6.7-4.2-5.8-7.9-6.7s-69.8-0.6-76.7-1.8c-6.8-1.2-16.2-5.3-20-2.7
		C134.8,54.6,134.1,55.7,134.1,55.7"/>
	<path id="XMLID_1_" class="st0" d="M154.6,53.8c0,0,6.9-7.3,11.3-8.4c4.4-1,17.4-3.2,23.7,10.2"/>
	<path id="XMLID_3_" class="st0" d="M197.8,55.7c0,0-2.3-4-4.6-5.6c-2.4-1.6-12.4-8-18.7-7s-6.8-0.9-11.5,5.5s-4.3,6-4.3,6"/>
	<line id="XMLID_5_" class="st0" x1="183" y1="56" x2="183" y2="49"/>
	<path id="XMLID_4_" class="st0" d="M183,44V28.3c0,0,3.4-3.6,6.7-3"/>
	<path id="XMLID_6_" class="st0" d="M144,52V24.2c0,0-3.1-5.5-10.1-2.4"/>
	<line id="XMLID_8_" class="st0" x1="145.2" y1="24.2" x2="183" y2="28.3"/>
	<path id="XMLID_9_" class="st0" d="M135,54V23.4c0,0-0.1-2.6-1.5-4.5s-1.7-7.1,1.4-8.6s56,5.6,57.4,6.4c1.4,0.8,4.7,2.6,1.3,7
		s-3.7,2.6-3.7,2.6V49"/>
	<path id="XMLID_7_" class="st0" d="M121.1,58.4c0,0,8.1-5.3,10.5,13.2c2.5,18.5,1,94.7,1,94.7L131.4,268c0,0,0.8,14.8-4.3,15.7"/>
	<path id="XMLID_11_" class="st0" d="M118.9,59.3c0,0-3.3,5.3-3.3,14s-4.5,42.7-3.9,56.9c0.6,14.2-0.1,75.6-0.1,75.6
		s-1.8,55.1,1.7,60.2s0.5,7.9,0.5,7.9"/>
	<path id="XMLID_12_" class="st0" d="M101.4,250.3c0,0,1.8,3.7,2.4,7.6c0.6,3.9-1.6,6,1.4,8.8s7,5.7,7,5.7"/>
	<path id="XMLID_10_" class="st0" d="M141.1,105c0,0,109.4-0.1,112.3,2.2c2.9,2.3,4.7,27.1,4.7,32s-3.1,106.2-3.1,106.2l-17,20.3
		l-76.8,10.5l-19.3-19.1c0,0,3.3-42.1,3.3-70.3s-0.4-62.7-4.1-82.2"/>
	<path id="XMLID_14_" class="st0" d="M132,104h5c0,0,2.9,29.7,3.1,41.4c0.3,11.8,1.5,50.6,0.8,65.1c-0.7,14.5-5.2,45.6-3.3,49.3
		c1.9,3.7,19.7,19.6,22,20.4c2.3,0.8,76.3-7.8,81.6-13c5.3-5.2,13.1-16.9,13.1-16.9"/>
	<line id="XMLID_15_" class="st0" x1="139.3" y1="283.8" x2="159.7" y2="280.3"/>
	<path id="XMLID_16_" class="st0" d="M137.1,53c0,0,8.9,18.8,9.3,30.5c14.4,0,93.5,1,103.5,3.1c0-11.3-8.2-24.7-8.2-24.7"/>
	<path id="XMLID_13_" class="st0" d="M135,57.7c0,0-0.5,3,2,9c2.5,6,1.7,21,1.7,21"/>
	<path id="XMLID_18_" class="st0" d="M135.9,87.5c0,0,111.5,1.9,121,5.6c1.2,9.2,1.2,8.2,1.2,8.2s-109.7-3.9-115.7-3.1s-5.5,0-5.5,0
		l-1-10.3"/>
	<path id="XMLID_19_" class="st0" d="M98.6,253.1c0,0,6.6,5.8,1.1,19.3"/>
	<path id="XMLID_17_" class="st0" d="M173.2,238.6c0,0,47.8-1,59.8-5.7c0,8.6,0,10.7,0,10.7s-43,6.6-60,4.3c0-5.6,0-8.9,0-8.9"/>
</g>
</svg>
