<?xml version="1.0" encoding="utf-8"?>
<!-- Generator: Adobe Illustrator 19.0.0, SVG Export Plug-In . SVG Version: 6.00 Build 0)  -->
<svg version="1.1" id="Layer_1" xmlns="http://www.w3.org/2000/svg" xmlns:xlink="http://www.w3.org/1999/xlink" x="0px" y="0px"
	 viewBox="0 0 300 300" style="enable-background:new 0 0 300 300;" xml:space="preserve">
<style type="text/css">
	.st0{fill:none;stroke:#000000;stroke-width:2;stroke-miterlimit:10;}
	.st1{fill:none;stroke:#000000;stroke-width:2;stroke-linecap:round;stroke-linejoin:round;stroke-miterlimit:10;}
</style>
<path id="XMLID_23_" class="st0" d="M97.1,137.8c0,0-1.8,16.7-3.1,25.2c-1.3,8.6-3.4,26.8-3.9,37.7c-0.5,10.9-1,60.6-1,60.6
	l-35.9,2.1c0,0,0.8-3.9,1.6-14.3c0.8-10.4,2.1-61.1,1.8-75.7c-0.3-14.6,3.1-57.8,3.1-57.8c1.3-10.9,7.5-40.1,8.8-52.6
	c1.3-12.5,6.5-23.2,9.4-25.5c2.9-2.3,29.1-10.4,29.1-10.4s15.6-4.4,22.1-7.8s7-7.8,9.9-8.8s11.2,1.8,23.4,2.3s21.9-4.1,23.9-2.6
	s0,20,0,20s-12,71.3-14.1,83s-13,39.8-14.8,48.1c-1.8,8.3-2.1,69-0.5,74.7c1.6,5.7,4.4,38,9.4,43.5c4.9,5.5,8.3,6.2,17.4,6.8
	c9.1,0.5,43.7-2.3,45.8-10.9s-2.6-54.4-2.9-59.8c2.1-1,2.1-1,2.1-1s-4.2-27.1-4.4-33.3c-0.3-6.2,2.3-30.4,4.2-42.7
	s7.3-33.6,6.5-48.1s5.7-46.8,9.6-50.7"/>
<path id="XMLID_22_" class="st0" d="M80,39.7c0,0,5.3,16.1,7.4,30.2c2.1,14.1,2.3,45.3,5.2,52s6.8,22.9,7.5,40.9
	C101,180.7,95,213,95,213l0.8,2.1c0,0-6,57.2-4.4,62.7s36.7,13.8,47.6,12s21.6-29.7,21.6-29.7"/>
<path id="XMLID_24_" class="st0" d="M186.3,10.3c0,0,0.8,2.8,6.5,6.7s27.1,9.4,32.8,12.2c5.7,2.9,21.9,7.8,24.5,10.4
	c2.6,2.6,4.4,18.7,6,25.8c1.6,7,8.6,51.8,8.3,60.1c-0.3,8.3,2.6,42.4,2.3,61.1c-0.3,18.7,0.6,76.2,0,77.3c-0.5,1-36.9-3.6-36.9-3.6"
	/>
<path id="XMLID_25_" class="st0" d="M229.3,249.7c-0.1-1,2-39.1,2-39.1l-3.1-70.5"/>
<path id="XMLID_27_" class="st0" d="M97.6,196.7c0,0,18,4,21.6,3.3c1.6-0.3,0.8,17.7-1.3,17.7S95,213,95,213"/>
<path id="XMLID_26_" class="st0" d="M225.9,194.9c-4.6,3.3-22.6,5-22.6,5s-0.1,18.1,1,19.1c1.1,1,22.4-3.4,22.4-3.4"/>
<path id="XMLID_28_" class="st0" d="M139,10.5c0,0,0.8,30.4,1.8,45.8s15.8,75.2,22.2,87.5"/>
<path id="XMLID_29_" class="st0" d="M197.7,19.5l14.6,13.4l-10.7,5.2l13.3,6.2c0,0-4.5,34.1-58,120.5"/>
<path id="XMLID_30_" class="st0" d="M126.6,20.5L114.2,34l6.2,2.6l-12.9,5.2c0,0,9.9,40.3,52.5,110.9"/>
<path id="XMLID_32_" class="st0" d="M139,20.5c0,0,23.7,8.4,48.2,0"/>
<path id="XMLID_31_" class="st1" d="M163.7,156.5c0,0-3.1,0.1-3.2,3.7c-0.1,3.5,2.7,3.5,4.1,3.7c2.1,0,5-4.7-0.4-7.4"/>
<path id="XMLID_34_" class="st1" d="M162.8,196.7c0,0-3.1,0.1-3.2,3.7c-0.1,3.5,2.7,3.5,4.1,3.7c2.1,0,5-4.7-0.4-7.4"/>
<path id="XMLID_35_" class="st1" d="M197.8,90.9c0,0,22.1-1.3,28.8-2.3c0,7.3,0,8.3,0,8.3s-20.6,3.4-33.3,3.2"/>
<line id="XMLID_36_" class="st1" x1="201.7" y1="47.7" x2="207.9" y2="50.3"/>
</svg>
