<?xml version="1.0" encoding="utf-8"?>
<!-- Generator: Adobe Illustrator 19.0.0, SVG Export Plug-In . SVG Version: 6.00 Build 0)  -->
<svg version="1.1" id="Layer_1" xmlns="http://www.w3.org/2000/svg" xmlns:xlink="http://www.w3.org/1999/xlink" x="0px" y="0px"
	 viewBox="0 0 300 300" style="enable-background:new 0 0 300 300;" xml:space="preserve">
<style type="text/css">
	.st0{fill:none;stroke:#000000;stroke-width:2;stroke-linecap:round;stroke-linejoin:round;stroke-miterlimit:10;}
</style>
<g id="XMLID_2_">
	<path id="XMLID_21_" class="st0" d="M183.4,55.3c0,0-3.1-4.3-6.2-8.4c-3.2-4.1-7.2-8.5-11.7-10.5c-4.5-2-8.5-6.5-8.5-6.5
		s-5.2-7.2,1.1-12c6.3-4.8,32.3-6.9,32.3-6.9s20.4-2.3,27.6,0c7.2,2.3,12.8,2.6,14.4,6.5s1.2,12.6,2,14.3c0,0,1,6,0.4,8.8
		c-0.6,2.8-1.1,10.8-13.5,20.1c-5.3,4-6.9,3.3-8.3,3.7c-1.4,0.4-3.7,0.4-3.7,0.4"/>
	<path id="XMLID_37_" class="st0" d="M158.6,31.4c2.1-4.8,33.7-6.8,33.7-6.8s24.5-1.3,30.6,1.1c4.1,1.6,5.8,2.1,5.8,2.1"/>
	<path id="XMLID_38_" class="st0" d="M231.4,21.6c0,0-2.7,6.1-2.7,7.5c0,1.4,0.5,2.4-1.7,3.9c-2.3,1.5-10.6,8.3-11.2,9.7
		c-0.7,1.4-4.1,4.9-5.8,8.9c-1.6,4-3.2,5.6-3.7,6c-0.5,0.4,1.1,3.9,0.6,6.3"/>
	<path id="XMLID_39_" class="st0" d="M208.6,65.5c0,0-5.6-5.5-13.2-6.7c-7.6-1.2-15.2,2.7-15.2,2.7s5.7,6.7,7,9.2s2.8,5.2,2.9,7.9
		c2.8-2.2,8.6,1.1,10.1,2.1c1.5,1,1.1,1.4,1.1,1.4s0.2-4.6,1.9-7.9S208.6,65.5,208.6,65.5"/>
	<path id="XMLID_40_" class="st0" d="M211.9,48.1c0,0-0.1,7.8-2,10.1c-1.9,2.3-3,4.8-3,4.8"/>
	<path id="XMLID_41_" class="st0" d="M183.4,60.3c0,0-1.2-2.3,0-3.7c1.2-1.4,3.1-1.1,3.1-1.1s2.6,0.9,4.9,1.3s14.8,0.9,14.8,0.9"/>
	<path id="XMLID_42_" class="st0" d="M181.6,61c0,0-5.5-0.1-7.4-1.4c-1.9-1.3-12.6-9.6-15.6-14.4c-3-4.8-3.5-8-3-11.4
		c0.4-3.5-0.5-9.5-0.5-9.5"/>
	<path id="XMLID_44_" class="st0" d="M157.1,29.9c0,0-2.8-5.5,8.5-8.3c11.3-2.8,39.8-4.1,43.1-3.4s18.2,1.9,22,5.3"/>
	<path id="XMLID_43_" class="st0" d="M191.4,78c-1,2.1-1.5,4.6-3.1,8.5c-1.6,3.9-10.8,22.1-11.1,44.7s-4.7,56.8-4.9,73.6
		c-0.2,16.8-4.6,50.4-5.6,55.9c2.6,5.6,21.4,26,26.3,29.3c8-4.6,25.5-22.6,26.2-24.4c0.7-1.8-4.1-73.9-3.8-79.5
		c0.3-5.6-1.8-47.8-2.5-52.5c-0.7-4.7-1.9-25.7-3.6-29.3c-1.7-3.6-9.1-22-9.1-23.7"/>
	<path id="XMLID_45_" class="st0" d="M190.7,79.7c0,0,8,6.8,12.3,14.7c4.3,7.9,5.6,7.5,5.6,7.5"/>
	<path id="XMLID_46_" class="st0" d="M186.4,90.8c0,0,10.7,10,15.8,17c5.1,7,9.6,13.4,9.6,13.4"/>
	<path id="XMLID_47_" class="st0" d="M182.2,101.9c0,0,12.4,12.9,14.4,15.5s16.6,18.5,16.6,18.5"/>
	<line id="XMLID_49_" class="st0" x1="179" y1="114.4" x2="214.2" y2="151.6"/>
	<path id="XMLID_48_" class="st0" d="M177.2,129.1c0,1,19.4,21.3,22.5,23.9c3,2.6,13.5,13.1,15.4,16.5"/>
	<path id="XMLID_51_" class="st0" d="M176.6,144.8c0,0.3,16.4,16.8,19.5,20.8c3.1,3.9,15.7,15.4,17.1,17.2c1.4,1.8,2.2,3.4,2.2,3.4"
		/>
	<path id="XMLID_52_" class="st0" d="M175.5,160.3c0.9,1,14.3,15.7,17.5,19.2c3.2,3.4,16.7,15.7,18.8,19.1c2.1,3.4,3.6,5.1,3.6,5.1"
		/>
	<path id="XMLID_53_" class="st0" d="M174.2,175.7l23.5,25.5c0,0,14.9,16.2,16.5,18.2c1.6,2,3,2.9,3,2.9"/>
	<path id="XMLID_54_" class="st0" d="M172.9,192.2l24.9,26.4c0,0,10,12.4,14.3,16.2c4.3,3.8,6.2,6.2,6.2,6.2"/>
	<path id="XMLID_55_" class="st0" d="M172.2,208.2c0,0,14.2,14.9,16.5,17.7c2.3,2.8,16.7,20.6,19.2,22.9
		c2.4,2.3,11.3,10.4,11.3,11.2"/>
	<path id="XMLID_50_" class="st0" d="M171.1,224.4c0,0.5,15,18.7,17.6,21.3c2.6,2.6,21.1,21.9,24,25.8"/>
	<path id="XMLID_57_" class="st0" d="M169.2,241.8c0,0,32.3,35.8,35,39.3"/>
	<path id="XMLID_58_" class="st0" d="M167.2,257.3c0,0,22.3,28.3,27.7,31.5"/>
	<path id="XMLID_56_" class="st0" d="M184.7,67c0,0,0.6-3.5,3.6-5.5c2.9-2,4.7-2.3,4.7-2.3"/>
	<path id="XMLID_59_" class="st0" d="M190,74.8c0,0-2.2-3.7,1.9-6.2c4-2.5,13.2-3.4,15.6-1.2"/>
	<path id="XMLID_61_" class="st0" d="M194.5,78c0,0,3.2-2.8,7.9-1.2"/>
	<path id="XMLID_62_" class="st0" d="M210.5,64.8c0,0,2.2-3.1,2.7-5.2c0.5-2.1-0.5-2.6,0-6.2c0.5-3.6,2.5-10.7,2.5-10.7"/>
	<path id="XMLID_60_" class="st0" d="M228.2,32c0,0-3.2,7.4-4,13.8c-0.8,6.4-2,13.2-5.5,16.7"/>
	<path id="XMLID_63_" class="st0" d="M232.8,22.9c0,0-1.9,7.2-0.8,11s-0.1,12.6-2,18.3"/>
	<path id="XMLID_65_" class="st0" d="M222.9,12.4c-0.4-0.1-8.3,5.6-12,6.2"/>
	<path id="XMLID_66_" class="st0" d="M202.7,24.3c0.5,0,6-3.7,7.2-5.7"/>
	<path id="XMLID_67_" class="st0" d="M196.8,18.2c0.3,0,8.7-7.8,10.2-8.2"/>
	<path id="XMLID_68_" class="st0" d="M188.8,24.9c0,0,5.7-4.6,7.3-6.7"/>
	<path id="XMLID_69_" class="st0" d="M172.8,26.7c0.6-0.1,9.8-6.4,9.5-7.6"/>
	<path id="XMLID_70_" class="st0" d="M172.1,20.4c0,0,9.1-6,8.8-8.3"/>
	<path id="XMLID_71_" class="st0" d="M160.2,23.6c0.3-1.1-1.9-0.4,4.4-8.5"/>
	<path id="XMLID_64_" class="st0" d="M159.1,30.7c0,0-1.2-0.5,2.5-4s4.4-5.3,4.4-5.3"/>
	<path id="XMLID_72_" class="st0" d="M215,24.3c0,0,5,0,7-1.4c2-1.4,3.2-1.8,3.2-1.8"/>
	<path id="XMLID_73_" class="st0" d="M226.8,21.6c0.8-0.4,2.9-2.9,4.6-2.2c1.7,0.6,2.1,3.3,2.1,3.3"/>
	<line id="XMLID_75_" class="st0" x1="169.8" y1="56.2" x2="177.6" y2="53.8"/>
	<path id="XMLID_74_" class="st0" d="M175.4,48.1c0.2,0.8,3.5,6.1,3.9,9.1c0.4,2.9,0,3.8,0,3.8"/>
	<path id="XMLID_77_" class="st0" d="M176.3,45.6c-0.7,0.4-2.4-0.3-4.9,0s-7.9,0.4-8.8,0.1c-1-0.3-3.9-0.5-3.9-0.5"/>
	<path id="XMLID_76_" class="st0" d="M155.5,33.8c0,0,2.9,2.8,4.6,2.9s4.5-0.8,4.5-0.8"/>
</g>
</svg>
