<?xml version="1.0" encoding="utf-8"?>
<!-- Generator: Adobe Illustrator 19.0.0, SVG Export Plug-In . SVG Version: 6.00 Build 0)  -->
<svg version="1.1" id="Layer_1" xmlns="http://www.w3.org/2000/svg" xmlns:xlink="http://www.w3.org/1999/xlink" x="0px" y="0px"
	 viewBox="0 0 300 300" style="enable-background:new 0 0 300 300;" xml:space="preserve">
<style type="text/css">
	.st0{fill:none;stroke:#000000;stroke-width:2;stroke-linecap:round;stroke-linejoin:round;stroke-miterlimit:10;}
</style>
<path id="XMLID_3_" class="st0" d="M17.5,99.8c0,0-16.9,41.5,0,68.3c10.7,7,23.7,14.7,25.6,14.7s15.2,2.5,47.1,23.3
	c6,3.9,27.7,20.2,35.9,22.9s32.8,11.4,60.7,8.5c27.9-2.9,40.5-8.5,46.2-14.2c0,0,8.3-5.6,4.5-19c-1.4-4.7-5.6-9.5-5.6-9.5
	s6.8,1.9,8.3,0.2c1.4-1.7-1.4-10.7-1.4-13.4s-0.4-8.1-14-12.6c-4.1-2.7-4.1-2.7-4.1-2.7l0.9-1.4c0,0-9.2-13.7-12.4-14.7
	s-21.2-4.2-21.2-4.2s-5.5,19.6,3.5,30c-0.7,1.5-5,6.6-5,6.6s-34.4-5.1-44.1,0.7c6.3,17.6,7.8,21.4,9.1,22.2
	c-7.4,1.1-20.6,1.4-27.9-1.8c-7.3-3.1-27.5-15-53.4-37.2s-50.7-56.4-51.9-62.4c-1.2-6-0.3-6.5,3.1-6.8s15,2.6,20.3,6.4
	s50,20.4,56.9,23.4c6.9,3,42.3,19.9,48.8,23.4c6.5,3.5,27.1,12.6,30.8,13.4c3.8,0.8,8.7,2.1,8.7,2.1"/>
<path id="XMLID_1_" class="st0" d="M20.6,109.2c0,0-7.3,7.3-7,17.3c0.3,10,11.7,39.9,28.4,55.9"/>
<path id="XMLID_4_" class="st0" d="M17.5,168.1c-0.6,0.7,0.5,5.4,2.4,7.2c1.9,1.8,25,13.5,25.7,13s0-2.8,0-2.8s11.2,0.6,15.8,3.9"/>
<path id="XMLID_6_" class="st0" d="M45.6,188.2c0.3-0.6,3.6-2.5,3.6-2.5"/>
<path id="XMLID_7_" class="st0" d="M44.1,140.4c0,0,11.1-2.2,27.8,6.5c16.8,8.7,44.2,24.5,50.3,26.9s26.3,7.5,26.3,7.5"/>
<path id="XMLID_5_" class="st0" d="M72,146.8c0,0,6-7.6,2.4-15.4c-3.5-7.8-5.3-15.9-5.3-15.9"/>
<path id="XMLID_9_" class="st0" d="M151.4,205.4l11.8,14.6c0,0,7.4-3.1,9.7-6c2.3-2.8,16.2-26.6,20.6-29.6"/>
<path id="XMLID_10_" class="st0" d="M191.7,184.5c0,0-16.6,15.7-29.5,17.8"/>
<path id="XMLID_8_" class="st0" d="M172.9,214.1l-2,12.3c0,0,23.1,4.6,25.7,4.1c2.6-0.5,17-0.4,18.8-0.5c1.2-3.5,0.7-13.5-4.9-22.3
	c-5.5-8.8-12.4-16.9-12.4-16.9l5.5-4.2c0,0,12.2,6.8,16.2,6.9c4.1,0,14.7-1.3,18.9,0.8"/>
<line id="XMLID_12_" class="st0" x1="200.9" y1="194.2" x2="206.8" y2="188.2"/>
<path id="XMLID_11_" class="st0" d="M157.9,236.8c0,0,3.9-2.5,7.3-6.3c3.4-3.8,5.7-7.1,5.7-7.1"/>
<path id="XMLID_14_" class="st0" d="M186.4,182.6c0,0,8.6-0.9,12.3,7.6"/>
<path id="XMLID_13_" class="st0" d="M190.8,176.9c0,0,6.4-1.5,10.1,1.8c3.7,3.4,2.7,7.7,2.7,7.7"/>
<path id="XMLID_15_" class="st0" d="M198.8,176.6c0,0,4.9-3.7,6-8c1.1-4.2,0-10.8,0-10.8"/>
<path id="XMLID_17_" class="st0" d="M200.9,178.3c0,0,13.4-9.5,19.1-9.9"/>
<path id="XMLID_18_" class="st0" d="M202.7,180.9c0,0,14.2-10.2,22.1-7.6s7.5,6,7.5,6"/>
<path id="XMLID_16_" class="st0" d="M193.4,191.2c0,0-8.9,16.9-7,21.6c1.8,4.6,3.4,7.2,3.4,7.2"/>
<path id="XMLID_20_" class="st0" d="M75.5,118.1c0,0-2.8-2.9-3.2-15.7c-0.5-12.9,3.4-28.6,3.2-31.7c-0.1-3.1,0.2-6.8,4-8.2
	c3.9-1.4,14.1,0.6,16.8,2c2.7,1.4,46.8,22.1,70.5,32.9s55.3,26.4,62.9,28.1c7.6,1.7,8.4,1.2,8.4,1.2s-1.5-6.8-3.3-9.3
	c-1.7-2.5-1.9-6.8-1.9-6.8s22,0,25.9,0.8c3.9,0.8,12.1,6.3,12.1,6.3l-1.9,5c0,0,4.6-3.7,6.7-2.8c2,0.9,7.7,7,9.4,12.5
	c1.7,5.6,5.1,16.3,4.8,17.8c-0.3,1.5-7.6-1.1-11.8-2.9c-4.2-1.9-22.5-8.4-22.5-8.4s1.4-7.4-1.7-8.7s-5.7-1.5-5.7-1.5l-5.1,4.3
	c0,0,4.2,0.9,6,3.3c1.9,2.3,0.6,6,0.3,6.7c-0.3,0.6,6.5,7,7,9.4s5.3,13.3,3.6,22.8c-3.7,1.8-15-1.1-15-1.1s-11.1-5.7-14.2-6.4
	s-9.3-2.8-9.3-2.8"/>
<path id="XMLID_21_" class="st0" d="M78.8,62.8c0,0-2.6,2.9,0,6.8c2.6,3.9,23.1,25.5,25.4,29c2.3,3.4,27.4,24.6,36.9,29.7
	c9.4,5.1,25.4,15.6,31.4,19.8c5.9,4.2,13.7,6,13.7,6"/>
<path id="XMLID_22_" class="st0" d="M78.8,69.6c0,0-4.8,6.7-4.8,11.6c0.1,4.8,1.2,17.4,4.8,21.9s16,22.6,16,22.6"/>
<path id="XMLID_23_" class="st0" d="M127,78.9c0,0-1.8,1.4,0.9,6.9c2.6,5.6,5.1,13.9,4,17.3c-1.1,3.4-1.1,3.4-1.1,3.4"/>
<path id="XMLID_19_" class="st0" d="M107.7,102.1c0,0,7.9-0.1,13.7,1.8c5.7,1.9,28.2,9.4,28.2,9.4s32.1,10.5,38.2,12.2
	c6.2,1.7,13.1,4,13.1,4"/>
<path id="XMLID_24_" class="st0" d="M205.3,149.2c0,0-1.7-4.7-2.6-9c-0.9-4.3-2.8-10.5-1.7-11.7c1.1-1.2,13.6-1.4,17.4-1.4
	s6.8-0.5,9.4,1.7c2.6,2.2,4.8,3.7,9.3,4.5s6.2-0.2,6.2-0.2"/>
<path id="XMLID_25_" class="st0" d="M254.1,130.3c0,0,4.6-5,8.4-5.4c3.7-0.5,6.7-2.2,6.7-2.2"/>
<path id="XMLID_26_" class="st0" d="M251.7,129.4c0,0,0.7-3.4,2.4-4.4s5.1-3.9,4.8-6.1"/>
<path id="XMLID_27_" class="st0" d="M255.3,131.3c0.3,0.7,7.3,1.7,9.9,3.1c2.6,1.4,13.8,6.3,15.9,3.6"/>
<path id="XMLID_28_" class="st0" d="M246.3,138.9c-1.9,2.2-6.3,8.7-5.6,14.5c0.7,5.7,4.7,13,4.7,13"/>
<path id="XMLID_29_" class="st0" d="M246.3,134.1c0,0-10.2,6.3-13.2,11.4s-10.7,9.2-10.1,12.2"/>
<path id="XMLID_30_" class="st0" d="M238.8,136.3c0,0-13.4,4.2-16.8,5.6c-3.5,1.4-9,2.9-9,2.9"/>
<line id="XMLID_32_" class="st0" x1="238.1" y1="126.7" x2="243.5" y2="131.3"/>
<path id="XMLID_31_" class="st0" d="M277.1,146.8c0,0,7.3,8.8,8.2,12.5c0.9,3.7,1.4,10.6-1.4,13.6c-2.8,3-17.8,11.4-32.3,12.1
	c-8.4,1.5-12,1.3-12,1.3"/>
<line id="XMLID_34_" class="st0" x1="232" y1="194.7" x2="230.4" y2="193"/>
<line id="XMLID_35_" class="st0" x1="255.8" y1="138.9" x2="249.6" y2="143"/>
<line id="XMLID_36_" class="st0" x1="258.9" y1="140.1" x2="252.7" y2="146.3"/>
<line id="XMLID_37_" class="st0" x1="230.8" y1="167.7" x2="227.5" y2="169.9"/>
</svg>
